<?xml version="1.0" encoding="UTF-8" standalone="no"?>
<svg
   xmlns:dc="http://purl.org/dc/elements/1.1/"
   xmlns:cc="http://creativecommons.org/ns#"
   xmlns:rdf="http://www.w3.org/1999/02/22-rdf-syntax-ns#"
   xmlns:svg="http://www.w3.org/2000/svg"
   xmlns="http://www.w3.org/2000/svg"
   viewBox="0 0 4913.2798 1020.48"
   height="1020.48"
   width="4913.2798"
   xml:space="preserve"
   id="svg2"
   version="1.1"><metadata
     id="metadata8"><rdf:RDF><cc:Work
         rdf:about=""><dc:format>image/svg+xml</dc:format><dc:type
           rdf:resource="http://purl.org/dc/dcmitype/StillImage" /></cc:Work></rdf:RDF></metadata><defs
     id="defs6"><clipPath
       id="clipPath18"
       clipPathUnits="userSpaceOnUse"><path
         style="clip-rule:evenodd"
         id="path16"
         d="M 0,1.8311e-4 H 3684.96 V 765.36018 H 0 Z" /></clipPath></defs><g
     transform="matrix(1.3333333,0,0,-1.3333333,0,1020.48)"
     id="g10"><g
       id="g12"><g
         clip-path="url(#clipPath18)"
         id="g14"><path
           id="path20"
           style="fill:#ffffff;fill-opacity:1;fill-rule:evenodd;stroke:none"
           d="M 0,6.1035e-5 H 3684.96 V 765.36006 H 0 Z" /></g></g><path
       id="path22"
       style="fill:#ed0a3f;fill-opacity:1;fill-rule:evenodd;stroke:none"
       d="M 21.403,711.24 H 505.76 V 679.02 L 193.27,102.87 h 139.64 c 17.91,0 32.88,3.66 44.92,10.99 12.05,7.32 22.46,18.88 31.25,34.66 8.79,15.79 17.91,43.21 27.35,82.27 h 66.4 V 44.767 H 13.591 V 76.992 L 326.08,653.14 H 193.76 c -21.48,0 -38.41,-3.91 -50.78,-11.72 -12.37,-7.81 -22.95,-20.34 -31.74,-37.59 -8.79,-17.26 -16.435,-40.2 -22.945,-68.85 H 21.403 Z" /><path
       id="path24"
       style="fill:none;stroke:#000000;stroke-width:9.96000004;stroke-linecap:butt;stroke-linejoin:round;stroke-miterlimit:10;stroke-dasharray:none;stroke-opacity:1"
       d="M 21.403,711.24 H 505.76 V 679.02 L 193.27,102.87 h 139.64 c 17.91,0 32.88,3.66 44.92,10.99 12.05,7.32 22.46,18.88 31.25,34.66 8.79,15.79 17.91,43.21 27.35,82.27 h 66.4 V 44.767 H 13.591 V 76.992 L 326.08,653.14 H 193.76 c -21.48,0 -38.41,-3.91 -50.78,-11.72 -12.37,-7.81 -22.95,-20.34 -31.74,-37.59 -8.79,-17.26 -16.435,-40.2 -22.945,-68.85 H 21.403 Z" /><path
       id="path26"
       style="fill:#ff8833;fill-opacity:1;fill-rule:evenodd;stroke:none"
       d="m 578.43,578 h 205.09 v -25.79 c -10.68,-2.86 -18.56,-5.92 -23.63,-9.18 -5.08,-3.25 -8.92,-7.22 -11.53,-11.91 -2.6,-4.69 -4.43,-10.81 -5.47,-18.36 -1.04,-7.55 -1.56,-18.62 -1.56,-33.21 V 142.82 c 0,-9.12 0.26,-17.58 0.78,-25.39 0.52,-7.82 1.56,-14.2 3.13,-19.145 1.56,-4.948 3.84,-9.115 6.83,-12.5 3,-3.386 7.1,-6.316 12.31,-8.79 5.21,-2.474 11.59,-4.623 19.14,-6.446 V 44.767 H 578.43 v 25.782 c 9.64,2.605 17.26,5.404 22.85,8.399 5.6,2.995 9.77,7.162 12.51,12.501 2.73,5.339 4.49,12.111 5.27,20.311 0.78,8.21 1.17,18.56 1.17,31.06 v 337.12 c 0,12.51 -0.32,22.79 -0.98,30.87 -0.65,8.07 -2.34,14.78 -5.07,20.11 -2.74,5.34 -6.91,9.57 -12.5,12.7 -5.6,3.13 -13.35,5.99 -23.25,8.59 z" /><path
       id="path28"
       style="fill:none;stroke:#000000;stroke-width:9.96000004;stroke-linecap:butt;stroke-linejoin:round;stroke-miterlimit:10;stroke-dasharray:none;stroke-opacity:1"
       d="m 578.43,578 h 205.09 v -25.79 c -10.68,-2.86 -18.56,-5.92 -23.63,-9.18 -5.08,-3.25 -8.92,-7.22 -11.53,-11.91 -2.6,-4.69 -4.43,-10.81 -5.47,-18.36 -1.04,-7.55 -1.56,-18.62 -1.56,-33.21 V 142.82 c 0,-9.12 0.26,-17.58 0.78,-25.39 0.52,-7.82 1.56,-14.2 3.13,-19.145 1.56,-4.948 3.84,-9.115 6.83,-12.5 3,-3.386 7.1,-6.316 12.31,-8.79 5.21,-2.474 11.59,-4.623 19.14,-6.446 V 44.767 H 578.43 v 25.782 c 9.64,2.605 17.26,5.404 22.85,8.399 5.6,2.995 9.77,7.162 12.51,12.501 2.73,5.339 4.49,12.111 5.27,20.311 0.78,8.21 1.17,18.56 1.17,31.06 v 337.12 c 0,12.51 -0.32,22.79 -0.98,30.87 -0.65,8.07 -2.34,14.78 -5.07,20.11 -2.74,5.34 -6.91,9.57 -12.5,12.7 -5.6,3.13 -13.35,5.99 -23.25,8.59 z" /><path
       id="path30"
       style="fill:#fed85d;fill-opacity:1;fill-rule:evenodd;stroke:none"
       d="m 1065.19,532.29 c -22.39,0 -37.11,-0.26 -44.14,-0.78 v -217.2 h 38.67 c 20.84,0 38.03,2.8 51.57,8.4 13.54,5.6 24.28,13.41 32.23,23.44 7.94,10.03 13.41,21.81 16.4,35.35 3,13.54 4.5,28.39 4.5,44.54 0,35.41 -8.34,61.98 -25,79.69 -16.67,17.71 -41.41,26.56 -74.23,26.56 z M 858.15,578 h 227.75 c 30.73,0 56.84,-2.15 78.32,-6.45 21.49,-4.3 40.3,-10.87 56.45,-19.73 13.54,-7.29 25,-16.47 34.38,-27.54 9.37,-11.07 16.6,-23.96 21.68,-38.67 5.08,-14.72 7.61,-31.84 7.61,-51.37 0,-25.52 -4.49,-47.4 -13.47,-65.63 -8.99,-18.23 -21.1,-33.4 -36.33,-45.51 -15.24,-12.11 -35.62,-23.5 -61.14,-34.18 v -3.91 c 19.27,-8.33 35.22,-19.46 47.86,-33.4 12.63,-13.93 24.02,-31.57 34.18,-52.93 l 24.61,-53.13 c 10.94,-23.7 21.81,-41.47 32.62,-53.32 10.8,-11.849 23.63,-19.076 38.48,-21.681 V 44.767 h -150.4 c -15.11,20.834 -32.17,51.825 -51.18,92.973 l -30.47,66.8 c -9.11,19.79 -16.93,33.86 -23.44,42.19 -6.51,8.33 -13.21,14.06 -20.11,17.19 -6.91,3.12 -17.52,4.69 -31.84,4.69 h -22.66 V 142.82 c 0,-19.53 0.91,-33.21 2.73,-41.02 1.83,-7.812 5.34,-14.062 10.55,-18.75 5.21,-4.688 14.85,-8.855 28.91,-12.501 V 44.767 H 858.15 v 25.782 c 9.64,2.605 17.26,5.404 22.85,8.399 5.6,2.995 9.77,7.162 12.51,12.501 2.73,5.339 4.49,12.111 5.27,20.311 0.78,8.21 1.17,18.56 1.17,31.06 v 336.73 c 0,12.24 -0.32,22.53 -0.98,30.87 -0.65,8.33 -2.34,15.1 -5.07,20.31 -2.74,5.21 -6.91,9.44 -12.5,12.69 -5.6,3.26 -13.35,6.19 -23.25,8.79 z" /><path
       id="path32"
       style="fill:none;stroke:#000000;stroke-width:9.96000004;stroke-linecap:butt;stroke-linejoin:round;stroke-miterlimit:10;stroke-dasharray:none;stroke-opacity:1"
       d="m 1065.19,532.29 c -22.39,0 -37.11,-0.26 -44.14,-0.78 v -217.2 h 38.67 c 20.84,0 38.03,2.8 51.57,8.4 13.54,5.6 24.28,13.41 32.23,23.44 7.94,10.03 13.41,21.81 16.4,35.35 3,13.54 4.5,28.39 4.5,44.54 0,35.41 -8.34,61.98 -25,79.69 -16.67,17.71 -41.41,26.56 -74.23,26.56 z M 858.15,578 h 227.75 c 30.73,0 56.84,-2.15 78.32,-6.45 21.49,-4.3 40.3,-10.87 56.45,-19.73 13.54,-7.29 25,-16.47 34.38,-27.54 9.37,-11.07 16.6,-23.96 21.68,-38.67 5.08,-14.72 7.61,-31.84 7.61,-51.37 0,-25.52 -4.49,-47.4 -13.47,-65.63 -8.99,-18.23 -21.1,-33.4 -36.33,-45.51 -15.24,-12.11 -35.62,-23.5 -61.14,-34.18 v -3.91 c 19.27,-8.33 35.22,-19.46 47.86,-33.4 12.63,-13.93 24.02,-31.57 34.18,-52.93 l 24.61,-53.13 c 10.94,-23.7 21.81,-41.47 32.62,-53.32 10.8,-11.849 23.63,-19.076 38.48,-21.681 V 44.767 h -150.4 c -15.11,20.834 -32.17,51.825 -51.18,92.973 l -30.47,66.8 c -9.11,19.79 -16.93,33.86 -23.44,42.19 -6.51,8.33 -13.21,14.06 -20.11,17.19 -6.91,3.12 -17.52,4.69 -31.84,4.69 h -22.66 V 142.82 c 0,-19.53 0.91,-33.21 2.73,-41.02 1.83,-7.812 5.34,-14.062 10.55,-18.75 5.21,-4.688 14.85,-8.855 28.91,-12.501 V 44.767 H 858.15 v 25.782 c 9.64,2.605 17.26,5.404 22.85,8.399 5.6,2.995 9.77,7.162 12.51,12.501 2.73,5.339 4.49,12.111 5.27,20.311 0.78,8.21 1.17,18.56 1.17,31.06 v 336.73 c 0,12.24 -0.32,22.53 -0.98,30.87 -0.65,8.33 -2.34,15.1 -5.07,20.31 -2.74,5.21 -6.91,9.44 -12.5,12.69 -5.6,3.26 -13.35,6.19 -23.25,8.79 z" /><path
       id="path34"
       style="fill:#da3287;fill-opacity:1;fill-rule:evenodd;stroke:none"
       d="m 1619.09,584.25 c 26.31,0 50.14,-1.44 71.49,-4.3 21.36,-2.86 43.62,-7.55 66.8,-14.06 V 452.6 h -53.13 c -6.25,29.43 -16.14,51.11 -29.68,65.04 -13.55,13.94 -31.26,20.9 -53.13,20.9 -41.15,0 -72.27,-19.73 -93.37,-59.18 -21.09,-39.46 -31.64,-97.99 -31.64,-175.6 0,-72.13 9.64,-126.76 28.91,-163.87 19.27,-37.11 47.53,-55.668 84.77,-55.668 19.01,0 34.51,3.19 46.49,9.571 11.98,6.377 21.55,15.947 28.71,28.717 7.16,12.76 13.34,30.73 18.55,53.9 h 53.52 V 58.049 c -28.65,-6.771 -54.82,-11.72 -78.52,-14.845 -23.7,-3.125 -48.31,-4.687 -73.83,-4.687 -54.17,0 -98.38,9.766 -132.62,29.298 -34.25,19.532 -59.51,49.025 -75.79,88.485 -16.28,39.45 -24.41,89.39 -24.41,149.81 0,56.51 9.57,105.67 28.71,147.47 19.14,41.8 47.33,74.02 84.57,96.68 37.24,22.66 81.78,33.99 133.6,33.99 z" /><path
       id="path36"
       style="fill:none;stroke:#000000;stroke-width:9.96000004;stroke-linecap:butt;stroke-linejoin:round;stroke-miterlimit:10;stroke-dasharray:none;stroke-opacity:1"
       d="m 1619.09,584.25 c 26.31,0 50.14,-1.44 71.49,-4.3 21.36,-2.86 43.62,-7.55 66.8,-14.06 V 452.6 h -53.13 c -6.25,29.43 -16.14,51.11 -29.68,65.04 -13.55,13.94 -31.26,20.9 -53.13,20.9 -41.15,0 -72.27,-19.73 -93.37,-59.18 -21.09,-39.46 -31.64,-97.99 -31.64,-175.6 0,-72.13 9.64,-126.76 28.91,-163.87 19.27,-37.11 47.53,-55.668 84.77,-55.668 19.01,0 34.51,3.19 46.49,9.571 11.98,6.377 21.55,15.947 28.71,28.717 7.16,12.76 13.34,30.73 18.55,53.9 h 53.52 V 58.049 c -28.65,-6.771 -54.82,-11.72 -78.52,-14.845 -23.7,-3.125 -48.31,-4.687 -73.83,-4.687 -54.17,0 -98.38,9.766 -132.62,29.298 -34.25,19.532 -59.51,49.025 -75.79,88.485 -16.28,39.45 -24.41,89.39 -24.41,149.81 0,56.51 9.57,105.67 28.71,147.47 19.14,41.8 47.33,74.02 84.57,96.68 37.24,22.66 81.78,33.99 133.6,33.99 z" /><path
       id="path38"
       style="fill:#3f26bf;fill-opacity:1;fill-rule:evenodd;stroke:none"
       d="m 2056.21,538.54 c -37.76,0 -65.83,-18.03 -84.19,-54.1 -18.36,-36.07 -27.54,-91.74 -27.54,-167 0,-78.65 9.44,-137.18 28.32,-175.6 18.89,-38.41 47.73,-57.618 86.53,-57.618 20.06,0 37.11,5.404 51.18,16.208 14.06,10.81 25.45,25.92 34.18,45.32 8.72,19.4 14.97,42.38 18.75,68.95 3.78,26.56 5.66,55.73 5.66,87.5 0,51.83 -4.1,95.25 -12.3,130.28 -8.21,35.03 -20.58,61.46 -37.11,79.3 -16.54,17.84 -37.7,26.76 -63.48,26.76 z m 3.51,45.71 c 77.87,0 136.34,-22.33 175.4,-67 39.07,-44.66 58.6,-111.01 58.6,-199.03 0,-49.22 -5.8,-91.48 -17.38,-126.77 -11.59,-35.28 -28.07,-64.26 -49.42,-86.91 -21.36,-22.662 -46.94,-39.329 -76.76,-50.007 -29.82,-10.678 -63.09,-16.016 -99.81,-16.016 -76.57,0 -134.06,22.397 -172.47,67.193 -38.42,44.79 -57.62,111.85 -57.62,201.18 0,58.6 9.31,108.66 27.93,150.2 18.62,41.54 46.03,73.12 82.23,94.73 36.2,21.62 79.3,32.43 129.3,32.43 z" /><path
       id="path40"
       style="fill:none;stroke:#000000;stroke-width:9.96000004;stroke-linecap:butt;stroke-linejoin:round;stroke-miterlimit:10;stroke-dasharray:none;stroke-opacity:1"
       d="m 2056.21,538.54 c -37.76,0 -65.83,-18.03 -84.19,-54.1 -18.36,-36.07 -27.54,-91.74 -27.54,-167 0,-78.65 9.44,-137.18 28.32,-175.6 18.89,-38.41 47.73,-57.618 86.53,-57.618 20.06,0 37.11,5.404 51.18,16.208 14.06,10.81 25.45,25.92 34.18,45.32 8.72,19.4 14.97,42.38 18.75,68.95 3.78,26.56 5.66,55.73 5.66,87.5 0,51.83 -4.1,95.25 -12.3,130.28 -8.21,35.03 -20.58,61.46 -37.11,79.3 -16.54,17.84 -37.7,26.76 -63.48,26.76 z m 3.51,45.71 c 77.87,0 136.34,-22.33 175.4,-67 39.07,-44.66 58.6,-111.01 58.6,-199.03 0,-49.22 -5.8,-91.48 -17.38,-126.77 -11.59,-35.28 -28.07,-64.26 -49.42,-86.91 -21.36,-22.662 -46.94,-39.329 -76.76,-50.007 -29.82,-10.678 -63.09,-16.016 -99.81,-16.016 -76.57,0 -134.06,22.397 -172.47,67.193 -38.42,44.79 -57.62,111.85 -57.62,201.18 0,58.6 9.31,108.66 27.93,150.2 18.62,41.54 46.03,73.12 82.23,94.73 36.2,21.62 79.3,32.43 129.3,32.43 z" /><path
       id="path42"
       style="fill:#0099ff;fill-opacity:1;fill-rule:evenodd;stroke:none"
       d="m 2371.5,578 h 158.21 L 2668,337.75 c 8.59,-15.1 19.79,-35.55 33.59,-61.33 13.81,-25.78 26.05,-50.13 36.72,-73.05 h 6.26 c -2.87,62.24 -4.3,130.21 -4.3,203.92 v 72.65 c 0,16.93 -0.65,29.17 -1.96,36.73 -1.3,7.55 -3.32,13.28 -6.05,17.18 -2.73,3.91 -6.38,7.17 -10.94,9.77 -4.56,2.6 -12.17,5.47 -22.85,8.59 V 578 h 147.66 v -25.79 c -10.41,-3.38 -17.77,-6.25 -22.07,-8.59 -4.3,-2.34 -7.94,-5.47 -10.94,-9.38 -2.99,-3.9 -5.27,-9.83 -6.83,-17.77 -1.57,-7.94 -2.35,-20.12 -2.35,-36.53 V 44.767 h -99.22 L 2528.93,348.69 c -23.7,41.15 -41.15,73.44 -52.35,96.88 h -3.51 c 2.6,-55.99 3.9,-115.11 3.9,-177.35 V 142.43 c 0,-19.53 0.98,-33.21 2.93,-41.02 1.96,-7.813 5.47,-13.998 10.55,-18.555 5.08,-4.558 14.65,-8.66 28.71,-12.306 V 44.767 H 2371.5 v 25.782 c 9.64,2.605 17.25,5.469 22.85,8.595 5.6,3.125 9.77,7.357 12.5,12.696 2.74,5.338 4.5,12.04 5.28,20.12 0.78,8.07 1.17,18.23 1.17,30.47 v 337.91 c 0,19.53 -0.85,33 -2.54,40.43 -1.69,7.42 -5.21,13.6 -10.55,18.55 -5.34,4.95 -14.91,9.25 -28.71,12.89 z" /><path
       id="path44"
       style="fill:none;stroke:#000000;stroke-width:9.96000004;stroke-linecap:butt;stroke-linejoin:round;stroke-miterlimit:10;stroke-dasharray:none;stroke-opacity:1"
       d="m 2371.5,578 h 158.21 L 2668,337.75 c 8.59,-15.1 19.79,-35.55 33.59,-61.33 13.81,-25.78 26.05,-50.13 36.72,-73.05 h 6.26 c -2.87,62.24 -4.3,130.21 -4.3,203.92 v 72.65 c 0,16.93 -0.65,29.17 -1.96,36.73 -1.3,7.55 -3.32,13.28 -6.05,17.18 -2.73,3.91 -6.38,7.17 -10.94,9.77 -4.56,2.6 -12.17,5.47 -22.85,8.59 V 578 h 147.66 v -25.79 c -10.41,-3.38 -17.77,-6.25 -22.07,-8.59 -4.3,-2.34 -7.94,-5.47 -10.94,-9.38 -2.99,-3.9 -5.27,-9.83 -6.83,-17.77 -1.57,-7.94 -2.35,-20.12 -2.35,-36.53 V 44.767 h -99.22 L 2528.93,348.69 c -23.7,41.15 -41.15,73.44 -52.35,96.88 h -3.51 c 2.6,-55.99 3.9,-115.11 3.9,-177.35 V 142.43 c 0,-19.53 0.98,-33.21 2.93,-41.02 1.96,-7.813 5.47,-13.998 10.55,-18.555 5.08,-4.558 14.65,-8.66 28.71,-12.306 V 44.767 H 2371.5 v 25.782 c 9.64,2.605 17.25,5.469 22.85,8.595 5.6,3.125 9.77,7.357 12.5,12.696 2.74,5.338 4.5,12.04 5.28,20.12 0.78,8.07 1.17,18.23 1.17,30.47 v 337.91 c 0,19.53 -0.85,33 -2.54,40.43 -1.69,7.42 -5.21,13.6 -10.55,18.55 -5.34,4.95 -14.91,9.25 -28.71,12.89 z" /><path
       id="path46"
       style="fill:#33cc99;fill-opacity:1;fill-rule:evenodd;stroke:none"
       d="m 2916.03,578 h 205.09 v -25.79 c -10.68,-2.86 -18.56,-5.92 -23.63,-9.18 -5.08,-3.25 -8.92,-7.22 -11.53,-11.91 -2.6,-4.69 -4.43,-10.81 -5.47,-18.36 -1.04,-7.55 -1.56,-18.62 -1.56,-33.21 V 142.82 c 0,-9.12 0.26,-17.58 0.78,-25.39 0.52,-7.82 1.56,-14.2 3.13,-19.145 1.56,-4.948 3.84,-9.115 6.83,-12.5 3,-3.386 7.1,-6.316 12.31,-8.79 5.21,-2.474 11.59,-4.623 19.14,-6.446 V 44.767 h -205.09 v 25.782 c 9.64,2.605 17.25,5.404 22.85,8.399 5.6,2.995 9.77,7.162 12.5,12.501 2.74,5.339 4.5,12.111 5.28,20.311 0.78,8.21 1.17,18.56 1.17,31.06 v 337.12 c 0,12.51 -0.33,22.79 -0.98,30.87 -0.65,8.07 -2.34,14.78 -5.07,20.11 -2.74,5.34 -6.91,9.57 -12.51,12.7 -5.59,3.13 -13.34,5.99 -23.24,8.59 z" /><path
       id="path48"
       style="fill:none;stroke:#000000;stroke-width:9.96000004;stroke-linecap:butt;stroke-linejoin:round;stroke-miterlimit:10;stroke-dasharray:none;stroke-opacity:1"
       d="m 2916.03,578 h 205.09 v -25.79 c -10.68,-2.86 -18.56,-5.92 -23.63,-9.18 -5.08,-3.25 -8.92,-7.22 -11.53,-11.91 -2.6,-4.69 -4.43,-10.81 -5.47,-18.36 -1.04,-7.55 -1.56,-18.62 -1.56,-33.21 V 142.82 c 0,-9.12 0.26,-17.58 0.78,-25.39 0.52,-7.82 1.56,-14.2 3.13,-19.145 1.56,-4.948 3.84,-9.115 6.83,-12.5 3,-3.386 7.1,-6.316 12.31,-8.79 5.21,-2.474 11.59,-4.623 19.14,-6.446 V 44.767 h -205.09 v 25.782 c 9.64,2.605 17.25,5.404 22.85,8.399 5.6,2.995 9.77,7.162 12.5,12.501 2.74,5.339 4.5,12.111 5.28,20.311 0.78,8.21 1.17,18.56 1.17,31.06 v 337.12 c 0,12.51 -0.33,22.79 -0.98,30.87 -0.65,8.07 -2.34,14.78 -5.07,20.11 -2.74,5.34 -6.91,9.57 -12.51,12.7 -5.59,3.13 -13.34,5.99 -23.24,8.59 z" /><path
       id="path50"
       style="fill:#156030;fill-opacity:1;fill-rule:evenodd;stroke:none"
       d="m 3399.67,475.65 -78.13,-219.94 h 140.63 z m -17.19,105.08 h 104.3 l 128.91,-437.52 c 5.73,-19.53 10.55,-33.4 14.46,-41.6 3.9,-8.208 8.98,-14.849 15.23,-19.927 6.25,-5.079 14.98,-8.79 26.18,-11.134 V 44.767 h -215.64 v 25.782 c 13.54,1.563 23.57,5.339 30.08,11.329 6.51,5.99 9.77,14.454 9.77,25.392 0,8.07 -0.92,17.06 -2.74,26.95 -1.82,9.9 -4.82,22.4 -8.98,37.51 l -10.55,38.28 H 3306.69 L 3293.8,172.9 c -3.64,-10.42 -6.64,-20.51 -8.98,-30.28 -2.35,-9.76 -3.52,-20.11 -3.52,-31.05 0,-25.525 13.54,-39.198 40.63,-41.021 V 44.767 h -166.81 v 25.782 c 9.64,1.042 18.1,4.428 25.4,10.157 7.29,5.73 13.93,13.543 19.92,23.434 5.99,9.9 12.37,24.09 19.14,42.59 z" /><path
       id="path52"
       style="fill:none;stroke:#000000;stroke-width:9.96000004;stroke-linecap:butt;stroke-linejoin:round;stroke-miterlimit:10;stroke-dasharray:none;stroke-opacity:1"
       d="m 3399.67,475.65 -78.13,-219.94 h 140.63 z m -17.19,105.08 h 104.3 l 128.91,-437.52 c 5.73,-19.53 10.55,-33.4 14.46,-41.6 3.9,-8.208 8.98,-14.849 15.23,-19.927 6.25,-5.079 14.98,-8.79 26.18,-11.134 V 44.767 h -215.64 v 25.782 c 13.54,1.563 23.57,5.339 30.08,11.329 6.51,5.99 9.77,14.454 9.77,25.392 0,8.07 -0.92,17.06 -2.74,26.95 -1.82,9.9 -4.82,22.4 -8.98,37.51 l -10.55,38.28 H 3306.69 L 3293.8,172.9 c -3.64,-10.42 -6.64,-20.51 -8.98,-30.28 -2.35,-9.76 -3.52,-20.11 -3.52,-31.05 0,-25.525 13.54,-39.198 40.63,-41.021 V 44.767 h -166.81 v 25.782 c 9.64,1.042 18.1,4.428 25.4,10.157 7.29,5.73 13.93,13.543 19.92,23.434 5.99,9.9 12.37,24.09 19.14,42.59 z" /></g></svg>